<svg id="Layer_1" data-name="Layer 1" xmlns="http://www.w3.org/2000/svg" viewBox="0 0 414.72 1182"><defs><style>.cls-1{fill:#e57325;}.cls-2,.cls-3,.cls-5{fill:none;stroke-miterlimit:10;}.cls-2{stroke:#e57325;}.cls-2,.cls-5{stroke-width:6px;}.cls-3{stroke:#fff;stroke-width:3px;}.cls-4{fill:#353635;}.cls-5{stroke:#353635;}.cls-6{fill:#e67f24;}.cls-7{fill:#e78b24;}.cls-8{fill:#fff200;}</style></defs><path class="cls-1" d="M169.51,185V111.2a13.8,13.8,0,0,1,27.6,0V185h27.1V111.2a13.8,13.8,0,0,1,27.6,0V185H279V107.9a39.78,39.78,0,0,0-39.8-39.8h0a39.39,39.39,0,0,0-28.7,12.3A39.75,39.75,0,0,0,142,107.9V185Z"/><path class="cls-2" d="M169.51,185V111.2a13.8,13.8,0,0,1,27.6,0V185h27.1V111.2a13.8,13.8,0,0,1,27.6,0V185H279V107.9a39.78,39.78,0,0,0-39.8-39.8h0a39.39,39.39,0,0,0-28.7,12.3A39.75,39.75,0,0,0,142,107.9V185Z"/><path class="cls-3" d="M169.51,185V111.2a13.8,13.8,0,0,1,27.6,0V185h27.1V111.2a13.8,13.8,0,0,1,27.6,0V185H279V107.9a39.78,39.78,0,0,0-39.8-39.8h0a39.39,39.39,0,0,0-28.7,12.3A39.75,39.75,0,0,0,142,107.9V185Z"/><path class="cls-4" d="M96.41,67.8,65.81,98.4c4.4,0,24.1-.3,25.3-.3a28.4,28.4,0,1,1-28.4,28.4l.1-27.1V55.8H32.41v70.7a58.7,58.7,0,0,0,117.4,0C149.91,95.1,127.31,69.5,96.41,67.8Z"/><path class="cls-5" d="M96.41,67.8,65.81,98.4c4.4,0,24.1-.3,25.3-.3a28.4,28.4,0,1,1-28.4,28.4l.1-27.1V55.8H32.41v70.7a58.7,58.7,0,0,0,117.4,0C149.91,95.1,127.31,69.5,96.41,67.8Z"/><path class="cls-3" d="M96.41,67.8,65.81,98.4c4.4,0,24.1-.3,25.3-.3a28.4,28.4,0,1,1-28.4,28.4l.1-27.1V55.8H32.41v70.7a58.7,58.7,0,0,0,117.4,0C149.91,95.1,127.31,69.5,96.41,67.8Z"/><path class="cls-1" d="M91.61,140.6h0a16,16,0,0,1-16-16V109.1h15.5a16,16,0,0,1,16,16h0A15.51,15.51,0,0,1,91.61,140.6Z"/><path class="cls-4" d="M360,137.3A28.39,28.39,0,1,1,333.81,98c.6,0,6.4.1,12.5.1l20.4-20.4A58.7,58.7,0,1,0,333.81,185a58.77,58.77,0,0,0,48.5-25.6Z"/><path class="cls-5" d="M360,137.3A28.39,28.39,0,1,1,333.81,98c.6,0,6.4.1,12.5.1l20.4-20.4A58.7,58.7,0,1,0,333.81,185a58.77,58.77,0,0,0,48.5-25.6Z"/><path class="cls-3" d="M360,137.3A28.39,28.39,0,1,1,333.81,98c.6,0,6.4.1,12.5.1l20.4-20.4A58.7,58.7,0,1,0,333.81,185a58.77,58.77,0,0,0,48.5-25.6Z"/><path class="cls-6" d="M169.51,365V291.2a13.8,13.8,0,0,1,27.6,0V365h27.1V291.2a13.8,13.8,0,0,1,27.6,0V365H279V287.9a39.78,39.78,0,0,0-39.8-39.8h0a39.39,39.39,0,0,0-28.7,12.3A39.75,39.75,0,0,0,142,287.9V365Z"/><path class="cls-2" d="M169.51,365V291.2a13.8,13.8,0,0,1,27.6,0V365h27.1V291.2a13.8,13.8,0,0,1,27.6,0V365H279V287.9a39.78,39.78,0,0,0-39.8-39.8h0a39.39,39.39,0,0,0-28.7,12.3A39.75,39.75,0,0,0,142,287.9V365Z"/><path class="cls-3" d="M169.51,365V291.2a13.8,13.8,0,0,1,27.6,0V365h27.1V291.2a13.8,13.8,0,0,1,27.6,0V365H279V287.9a39.78,39.78,0,0,0-39.8-39.8h0a39.39,39.39,0,0,0-28.7,12.3A39.75,39.75,0,0,0,142,287.9V365Z"/><path class="cls-4" d="M96.41,247.8l-30.6,30.6c4.4,0,24.1-.3,25.3-.3a28.4,28.4,0,1,1-28.4,28.4l.1-27.1V235.8H32.41v70.7a58.7,58.7,0,0,0,117.4,0C149.91,275.1,127.31,249.5,96.41,247.8Z"/><path class="cls-5" d="M96.41,247.8l-30.6,30.6c4.4,0,24.1-.3,25.3-.3a28.4,28.4,0,1,1-28.4,28.4l.1-27.1V235.8H32.41v70.7a58.7,58.7,0,0,0,117.4,0C149.91,275.1,127.31,249.5,96.41,247.8Z"/><path class="cls-3" d="M96.41,247.8l-30.6,30.6c4.4,0,24.1-.3,25.3-.3a28.4,28.4,0,1,1-28.4,28.4l.1-27.1V235.8H32.41v70.7a58.7,58.7,0,0,0,117.4,0C149.91,275.1,127.31,249.5,96.41,247.8Z"/><path class="cls-1" d="M91.61,320.6h0a16,16,0,0,1-16-16V289.1h15.5a16,16,0,0,1,16,16h0A15.51,15.51,0,0,1,91.61,320.6Z"/><path class="cls-4" d="M360,317.3a28.39,28.39,0,1,1-26.2-39.3c.6,0,6.4.1,12.5.1l20.4-20.4A58.7,58.7,0,1,0,333.81,365a58.77,58.77,0,0,0,48.5-25.6Z"/><path class="cls-5" d="M360,317.3a28.39,28.39,0,1,1-26.2-39.3c.6,0,6.4.1,12.5.1l20.4-20.4A58.7,58.7,0,1,0,333.81,365a58.77,58.77,0,0,0,48.5-25.6Z"/><path class="cls-3" d="M360,317.3a28.39,28.39,0,1,1-26.2-39.3c.6,0,6.4.1,12.5.1l20.4-20.4A58.7,58.7,0,1,0,333.81,365a58.77,58.77,0,0,0,48.5-25.6Z"/><path class="cls-1" d="M172.66,567V493.2a13.8,13.8,0,1,1,27.6,0V567h27.1V493.2a13.8,13.8,0,0,1,27.6,0V567h27.2V489.9a39.78,39.78,0,0,0-39.8-39.8h0a39.39,39.39,0,0,0-28.7,12.3,39.75,39.75,0,0,0-68.5,27.5V567Z"/><path class="cls-2" d="M172.66,567V493.2a13.8,13.8,0,1,1,27.6,0V567h27.1V493.2a13.8,13.8,0,0,1,27.6,0V567h27.2V489.9a39.78,39.78,0,0,0-39.8-39.8h0a39.39,39.39,0,0,0-28.7,12.3,39.75,39.75,0,0,0-68.5,27.5V567Z"/><path class="cls-3" d="M172.66,567V493.2a13.8,13.8,0,1,1,27.6,0V567h27.1V493.2a13.8,13.8,0,0,1,27.6,0V567h27.2V489.9a39.78,39.78,0,0,0-39.8-39.8h0a39.39,39.39,0,0,0-28.7,12.3,39.75,39.75,0,0,0-68.5,27.5V567Z"/><path class="cls-4" d="M99.56,449.8,69,480.4c4.4,0,24.1-.3,25.3-.3a28.4,28.4,0,1,1-28.4,28.4l.1-27.1V437.8H35.56v70.7a58.7,58.7,0,1,0,117.4,0C153.06,477.1,130.46,451.5,99.56,449.8Z"/><path class="cls-5" d="M99.56,449.8,69,480.4c4.4,0,24.1-.3,25.3-.3a28.4,28.4,0,1,1-28.4,28.4l.1-27.1V437.8H35.56v70.7a58.7,58.7,0,1,0,117.4,0C153.06,477.1,130.46,451.5,99.56,449.8Z"/><path class="cls-3" d="M99.56,449.8,69,480.4c4.4,0,24.1-.3,25.3-.3a28.4,28.4,0,1,1-28.4,28.4l.1-27.1V437.8H35.56v70.7a58.7,58.7,0,1,0,117.4,0C153.06,477.1,130.46,451.5,99.56,449.8Z"/><path class="cls-1" d="M94.76,522.6h0a16,16,0,0,1-16-16V491.1h15.5a16,16,0,0,1,16,16h0A15.51,15.51,0,0,1,94.76,522.6Z"/><path class="cls-4" d="M363.16,519.3A28.39,28.39,0,1,1,337,480c.6,0,6.4.1,12.5.1l20.4-20.4A58.7,58.7,0,1,0,337,567a58.77,58.77,0,0,0,48.5-25.6Z"/><path class="cls-5" d="M363.16,519.3A28.39,28.39,0,1,1,337,480c.6,0,6.4.1,12.5.1l20.4-20.4A58.7,58.7,0,1,0,337,567a58.77,58.77,0,0,0,48.5-25.6Z"/><path class="cls-3" d="M363.16,519.3A28.39,28.39,0,1,1,337,480c.6,0,6.4.1,12.5.1l20.4-20.4A58.7,58.7,0,1,0,337,567a58.77,58.77,0,0,0,48.5-25.6Z"/><path class="cls-1" d="M169.51,754.4V680.6a13.8,13.8,0,0,1,27.6,0v73.8h27.1V680.6a13.8,13.8,0,0,1,27.6,0v73.8H279V677.3a39.78,39.78,0,0,0-39.8-39.8h0a39.39,39.39,0,0,0-28.7,12.3A39.75,39.75,0,0,0,142,677.3v77.1Z"/><path class="cls-2" d="M169.51,754.4V680.6a13.8,13.8,0,0,1,27.6,0v73.8h27.1V680.6a13.8,13.8,0,0,1,27.6,0v73.8H279V677.3a39.78,39.78,0,0,0-39.8-39.8h0a39.39,39.39,0,0,0-28.7,12.3A39.75,39.75,0,0,0,142,677.3v77.1Z"/><path class="cls-3" d="M169.51,754.4V680.6a13.8,13.8,0,0,1,27.6,0v73.8h27.1V680.6a13.8,13.8,0,0,1,27.6,0v73.8H279V677.3a39.78,39.78,0,0,0-39.8-39.8h0a39.39,39.39,0,0,0-28.7,12.3A39.75,39.75,0,0,0,142,677.3v77.1Z"/><path class="cls-4" d="M96.41,637.2l-30.6,30.6c4.4,0,24.1-.3,25.3-.3a28.4,28.4,0,1,1-28.4,28.4l.1-27.1V625.2H32.41v70.7a58.7,58.7,0,1,0,117.4,0C149.91,664.5,127.31,638.9,96.41,637.2Z"/><path class="cls-5" d="M96.41,637.2l-30.6,30.6c4.4,0,24.1-.3,25.3-.3a28.4,28.4,0,1,1-28.4,28.4l.1-27.1V625.2H32.41v70.7a58.7,58.7,0,1,0,117.4,0C149.91,664.5,127.31,638.9,96.41,637.2Z"/><path class="cls-3" d="M96.41,637.2l-30.6,30.6c4.4,0,24.1-.3,25.3-.3a28.4,28.4,0,1,1-28.4,28.4l.1-27.1V625.2H32.41v70.7a58.7,58.7,0,1,0,117.4,0C149.91,664.5,127.31,638.9,96.41,637.2Z"/><path class="cls-1" d="M91.61,710h0a16,16,0,0,1-16-16V678.5h15.5a16,16,0,0,1,16,16h0A15.51,15.51,0,0,1,91.61,710Z"/><path class="cls-4" d="M360,706.7a28.39,28.39,0,1,1-26.2-39.3c.6,0,6.4.1,12.5.1l20.4-20.4a58.7,58.7,0,1,0-32.9,107.3,58.77,58.77,0,0,0,48.5-25.6Z"/><path class="cls-5" d="M360,706.7a28.39,28.39,0,1,1-26.2-39.3c.6,0,6.4.1,12.5.1l20.4-20.4a58.7,58.7,0,1,0-32.9,107.3,58.77,58.77,0,0,0,48.5-25.6Z"/><path class="cls-3" d="M360,706.7a28.39,28.39,0,1,1-26.2-39.3c.6,0,6.4.1,12.5.1l20.4-20.4a58.7,58.7,0,1,0-32.9,107.3,58.77,58.77,0,0,0,48.5-25.6Z"/><path class="cls-7" d="M181.83,935.6V861.8a13.8,13.8,0,0,1,27.6,0v73.8h27.1V861.8a13.8,13.8,0,1,1,27.6,0v73.8h27.2V858.5a39.78,39.78,0,0,0-39.8-39.8h0a39.39,39.39,0,0,0-28.7,12.3,39.75,39.75,0,0,0-68.5,27.5v77.1Z"/><path class="cls-2" d="M181.83,935.6V861.8a13.8,13.8,0,0,1,27.6,0v73.8h27.1V861.8a13.8,13.8,0,1,1,27.6,0v73.8h27.2V858.5a39.78,39.78,0,0,0-39.8-39.8h0a39.39,39.39,0,0,0-28.7,12.3,39.75,39.75,0,0,0-68.5,27.5v77.1Z"/><path class="cls-3" d="M181.83,935.6V861.8a13.8,13.8,0,0,1,27.6,0v73.8h27.1V861.8a13.8,13.8,0,1,1,27.6,0v73.8h27.2V858.5a39.78,39.78,0,0,0-39.8-39.8h0a39.39,39.39,0,0,0-28.7,12.3,39.75,39.75,0,0,0-68.5,27.5v77.1Z"/><path class="cls-4" d="M108.73,818.4,78.13,849c4.4,0,24.1-.3,25.3-.3A28.4,28.4,0,1,1,75,877.1l.1-27.1V806.4H44.73v70.7a58.7,58.7,0,1,0,117.4,0C162.23,845.7,139.63,820.1,108.73,818.4Z"/><path class="cls-5" d="M108.73,818.4,78.13,849c4.4,0,24.1-.3,25.3-.3A28.4,28.4,0,1,1,75,877.1l.1-27.1V806.4H44.73v70.7a58.7,58.7,0,1,0,117.4,0C162.23,845.7,139.63,820.1,108.73,818.4Z"/><path class="cls-3" d="M108.73,818.4,78.13,849c4.4,0,24.1-.3,25.3-.3A28.4,28.4,0,1,1,75,877.1l.1-27.1V806.4H44.73v70.7a58.7,58.7,0,1,0,117.4,0C162.23,845.7,139.63,820.1,108.73,818.4Z"/><path class="cls-1" d="M103.93,891.2h0a16,16,0,0,1-16-16V859.7h15.5a16,16,0,0,1,16,16h0A15.51,15.51,0,0,1,103.93,891.2Z"/><path class="cls-4" d="M372.33,887.9a28.39,28.39,0,1,1-26.2-39.3c.6,0,6.4.1,12.5.1L379,828.3a58.7,58.7,0,1,0-32.9,107.3,58.77,58.77,0,0,0,48.5-25.6Z"/><path class="cls-5" d="M372.33,887.9a28.39,28.39,0,1,1-26.2-39.3c.6,0,6.4.1,12.5.1L379,828.3a58.7,58.7,0,1,0-32.9,107.3,58.77,58.77,0,0,0,48.5-25.6Z"/><path class="cls-3" d="M372.33,887.9a28.39,28.39,0,1,1-26.2-39.3c.6,0,6.4.1,12.5.1L379,828.3a58.7,58.7,0,1,0-32.9,107.3,58.77,58.77,0,0,0,48.5-25.6Z"/><path class="cls-8" d="M177.88,1116.8V1043a13.8,13.8,0,1,1,27.6,0v73.8h27.1V1043a13.8,13.8,0,0,1,27.6,0v73.8h27.2v-77.1a39.78,39.78,0,0,0-39.8-39.8h0a39.39,39.39,0,0,0-28.7,12.3,39.75,39.75,0,0,0-68.5,27.5v77.1Z"/><path class="cls-2" d="M177.88,1116.8V1043a13.8,13.8,0,1,1,27.6,0v73.8h27.1V1043a13.8,13.8,0,0,1,27.6,0v73.8h27.2v-77.1a39.78,39.78,0,0,0-39.8-39.8h0a39.39,39.39,0,0,0-28.7,12.3,39.75,39.75,0,0,0-68.5,27.5v77.1Z"/><path class="cls-3" d="M177.88,1116.8V1043a13.8,13.8,0,1,1,27.6,0v73.8h27.1V1043a13.8,13.8,0,0,1,27.6,0v73.8h27.2v-77.1a39.78,39.78,0,0,0-39.8-39.8h0a39.39,39.39,0,0,0-28.7,12.3,39.75,39.75,0,0,0-68.5,27.5v77.1Z"/><path class="cls-4" d="M104.78,999.6l-30.6,30.6c4.4,0,24.1-.3,25.3-.3a28.4,28.4,0,1,1-28.4,28.4l.1-27.1V987.6H40.78v70.7a58.7,58.7,0,1,0,117.4,0C158.28,1026.9,135.68,1001.3,104.78,999.6Z"/><path class="cls-5" d="M104.78,999.6l-30.6,30.6c4.4,0,24.1-.3,25.3-.3a28.4,28.4,0,1,1-28.4,28.4l.1-27.1V987.6H40.78v70.7a58.7,58.7,0,1,0,117.4,0C158.28,1026.9,135.68,1001.3,104.78,999.6Z"/><path class="cls-3" d="M104.78,999.6l-30.6,30.6c4.4,0,24.1-.3,25.3-.3a28.4,28.4,0,1,1-28.4,28.4l.1-27.1V987.6H40.78v70.7a58.7,58.7,0,1,0,117.4,0C158.28,1026.9,135.68,1001.3,104.78,999.6Z"/><path class="cls-1" d="M100,1072.4h0a16,16,0,0,1-16-16v-15.5h15.5a16,16,0,0,1,16,16h0A15.51,15.51,0,0,1,100,1072.4Z"/><path class="cls-4" d="M368.38,1069.1a28.39,28.39,0,1,1-26.2-39.3c.6,0,6.4.1,12.5.1l20.4-20.4a58.7,58.7,0,1,0-32.9,107.3,58.77,58.77,0,0,0,48.5-25.6Z"/><path class="cls-5" d="M368.38,1069.1a28.39,28.39,0,1,1-26.2-39.3c.6,0,6.4.1,12.5.1l20.4-20.4a58.7,58.7,0,1,0-32.9,107.3,58.77,58.77,0,0,0,48.5-25.6Z"/><path class="cls-3" d="M368.38,1069.1a28.39,28.39,0,1,1-26.2-39.3c.6,0,6.4.1,12.5.1l20.4-20.4a58.7,58.7,0,1,0-32.9,107.3,58.77,58.77,0,0,0,48.5-25.6Z"/></svg>